Coordinates
version=1
nRows=18
nColumns=34
inDegrees=no

Units are S.I. units (second, meters, Newtons, ...)
If the header above contains a line with 'inDegrees', this indicates whether rotational values are in degrees (yes) or radians (no).

endheader
time	pelvis_tilt	pelvis_list	pelvis_rotation	pelvis_tx	pelvis_ty	pelvis_tz	hip_flexion_r	hip_adduction_r	hip_rotation_r	knee_angle_r	ankle_angle_r	subtalar_angle_r	mtp_angle_r	hip_flexion_l	hip_adduction_l	hip_rotation_l	knee_angle_l	ankle_angle_l	subtalar_angle_l	mtp_angle_l	lumbar_extension	lumbar_bending	lumbar_rotation	arm_flex_r	arm_add_r	arm_rot_r	elbow_flex_r	pro_sup_r	arm_flex_l	arm_add_l	arm_rot_l	elbow_flex_l	pro_sup_l
0	-0.0565099	-0.0585895	0.0821774	-0.120461	1.00057	-0.194587	0.441888	0.0316407	-0.108713	0.0432169	0.0261887	0.032826	-0.000208655	-0.107303	-0.0701853	0.0536667	0.32028	0.438959	0.0921827	-0.000253057	-0.0503437	0.103066	-0.133366	-0.241324	-0.0851022	-0.381646	0.697732	1.72004	0.294343	-0.388057	0.031904	1.23479	1.76851
0.01	-0.0597007	-0.0705913	0.081168	-0.106714	1.00557	-0.19326	0.443069	0.0450564	-0.0976446	0.0580211	0.000165044	-0.00346724	-0.000208657	-0.102426	-0.0847942	0.0472011	0.351067	0.4359	0.0888048	-0.000252945	-0.0451858	0.120477	-0.132618	-0.240989	-0.0865551	-0.385853	0.685719	1.71822	0.286135	-0.383026	0.0293733	1.24441	1.76979
0.02	-0.0628904	-0.0820062	0.0797342	-0.093105	1.01002	-0.191893	0.444354	0.0576556	-0.0890708	0.073748	-0.0211273	-0.0335857	-0.000208658	-0.0947563	-0.0988449	0.0405887	0.385471	0.425921	0.0816191	-0.000252833	-0.0403471	0.136953	-0.131537	-0.240484	-0.0881755	-0.389329	0.674432	1.71679	0.277027	-0.377566	0.0269706	1.25327	1.76994
0.03	-0.0660738	-0.0928442	0.0778899	-0.079652	1.01399	-0.190486	0.445687	0.0694537	-0.0829615	0.0902996	-0.0376992	-0.0575809	-0.00020866	-0.0842793	-0.112349	0.0338442	0.423507	0.409027	0.0706255	-0.000252721	-0.035832	0.152495	-0.130132	-0.239815	-0.0899625	-0.392064	0.66389	1.71575	0.267025	-0.371678	0.0247036	1.26134	1.76893
0.04	-0.0692374	-0.103131	0.0756808	-0.0663718	1.01751	-0.189042	0.446919	0.0804928	-0.0792499	0.107402	-0.0495875	-0.0755961	-0.000208661	-0.0709668	-0.125339	0.0270215	0.465186	0.385259	0.055834	-0.000252609	-0.0316498	0.167111	-0.128433	-0.239004	-0.0919147	-0.394032	0.654151	1.71508	0.256151	-0.365372	0.0225935	1.26864	1.76676
0.05	-0.0723587	-0.112914	0.0731981	-0.053278	1.02065	-0.187565	0.447798	0.0908457	-0.0778463	0.124586	-0.0568784	-0.0878835	-0.000208663	-0.054788	-0.137875	0.0202361	0.510486	0.354777	0.0372869	-0.000252497	-0.0278092	0.180817	-0.126504	-0.238099	-0.0940302	-0.395184	0.645326	1.71471	0.244443	-0.358673	0.0206789	1.27512	1.76341
0.06	-0.075409	-0.122257	0.0705816	-0.0403801	1.02344	-0.186061	0.448001	0.100611	-0.0786526	0.141231	-0.0597379	-0.0948018	-0.000208665	-0.0357354	-0.150035	0.0136716	0.559298	0.317953	0.0150836	-0.000252385	-0.0243129	0.19364	-0.124444	-0.237169	-0.0963063	-0.395457	0.637569	1.71457	0.23197	-0.351619	0.0190182	1.28078	1.75886
0.07	-0.0783561	-0.131237	0.0680091	-0.0276837	1.02594	-0.184536	0.447182	0.109902	-0.081564	0.156653	-0.0584401	-0.0967988	-0.000208666	-0.0138548	-0.161906	0.00756498	0.611386	0.275473	-0.0105974	-0.000252273	-0.0211534	0.205614	-0.122373	-0.236302	-0.0987404	-0.394793	0.63106	1.71452	0.218826	-0.344268	0.0176888	1.28556	1.75318
0.08	-0.081167	-0.139925	0.0656714	-0.0151909	1.02819	-0.183002	0.445028	0.11883	-0.0864546	0.170206	-0.0533852	-0.0943907	-0.000208668	0.0107265	-0.173559	0.00216907	0.666352	0.228421	-0.0394792	-0.000252161	-0.018315	0.216777	-0.120415	-0.235588	-0.101329	-0.393158	0.625964	1.71446	0.205132	-0.336687	0.0167832	1.28942	1.74649
0.09	-0.0838081	-0.148375	0.0637408	-0.00289882	1.03023	-0.181468	0.441308	0.12749	-0.0931531	0.181382	-0.0451031	-0.0881413	-0.000208669	0.0377795	-0.18503	-0.00229821	0.723631	0.178311	-0.0711706	-0.000252049	-0.01578	0.227157	-0.118664	-0.235105	-0.104065	-0.390568	0.622398	1.71428	0.191026	-0.328952	0.0164001	1.29228	1.73906
0.1	-0.0862459	-0.156604	0.0623379	0.00919968	1.03209	-0.179944	0.435894	0.135942	-0.101419	0.189873	-0.0342386	-0.0786429	-0.000208671	0.0669656	-0.196302	-0.00570373	0.782497	0.127067	-0.105149	-0.000251937	-0.0135373	0.236754	-0.117168	-0.234898	-0.106939	-0.387108	0.620394	1.71391	0.176651	-0.321135	0.0166326	1.29401	1.73127
0.11	-0.0884479	-0.164583	0.0615078	0.0211147	1.0338	-0.178436	0.428774	0.144198	-0.110928	0.195599	-0.021521	-0.0665009	-0.000208673	0.0978442	-0.207288	-0.00803398	0.842093	0.0769272	-0.140744	-0.000251825	-0.0115896	0.245535	-0.115905	-0.234968	-0.109932	-0.382934	0.619886	1.71333	0.162139	-0.313306	0.0175503	1.29449	1.72366
0.12	-0.0903862	-0.172224	0.0612097	0.0328599	1.03538	-0.176947	0.420041	0.152222	-0.121276	0.198697	-0.00771774	-0.0523199	-0.000208674	0.129897	-0.21784	-0.00940421	0.901471	0.0302705	-0.177116	-0.000251713	-0.00995566	0.253421	-0.114793	-0.235271	-0.113021	-0.378259	0.620705	1.71257	0.147593	-0.305523	0.019181	1.29356	1.71684
0.13	-0.0920503	-0.179385	0.0613227	0.0444495	1.03686	-0.175477	0.409863	0.159925	-0.131993	0.199471	0.0064215	-0.0366929	-0.000208676	0.162563	-0.227746	-0.0100393	0.959642	-0.0106066	-0.21325	-0.000251601	-0.00866905	0.260289	-0.113696	-0.235719	-0.116173	-0.373332	0.622598	1.7117	0.133078	-0.297832	0.0214911	1.29104	1.71147
0.14	-0.0934587	-0.185887	0.0616686	0.0558987	1.03826	-0.174022	0.398459	0.167181	-0.142576	0.198338	0.020226	-0.0201924	-0.000208677	0.195289	-0.236758	-0.0102318	1.01563	-0.0437422	-0.247961	-0.000251489	-0.00777109	0.265981	-0.112458	-0.236198	-0.119348	-0.368404	0.625265	1.71076	0.118607	-0.290267	0.0243722	1.28678	1.70814
0.15	-0.0946438	-0.191531	0.0620432	0.0672226	1.0396	-0.172575	0.386077	0.173845	-0.152527	0.195754	0.0331602	-0.00336547	-0.000208679	0.227573	-0.244612	-0.0102877	1.0685	-0.0677376	-0.279928	-0.000251376	-0.00729117	0.270321	-0.110932	-0.236579	-0.122499	-0.363698	0.628393	1.70979	0.104147	-0.282848	0.0276363	1.28067	1.70727
0.16	-0.095639	-0.196127	0.062242	0.0784366	1.04089	-0.171128	0.372967	0.179772	-0.161388	0.192164	0.0448669	0.0132706	-0.000208681	0.259013	-0.251067	-0.0104735	1.11745	-0.0819183	-0.307775	-0.000251264	-0.00723245	0.273145	-0.109007	-0.236738	-0.125571	-0.359398	0.631693	1.70878	0.0896278	-0.275584	0.0310233	1.27265	1.709
0.17	-0.0964863	-0.199527	0.0620947	0.089555	1.04214	-0.169673	0.359362	0.18485	-0.168775	0.187951	0.0551874	0.0292331	-0.000208682	0.289323	-0.255935	-0.0109783	1.16178	-0.0863912	-0.330192	-0.000251152	-0.00757129	0.274326	-0.106636	-0.236574	-0.128507	-0.355638	0.634927	1.70765	0.0749541	-0.26847	0.034222	1.26273	1.71315
